Coordinates
version=1
nRows=14
nColumns=33
inDegrees=yes

Units are S.I. units (second, meters, Newtons, ...)
Angles are in degrees.

endheader
time	ground_thorax_rot_x	ground_thorax_rot_y	ground_thorax_rot_z	ground_thorax_tx	ground_thorax_ty	ground_thorax_tz	clav_prot_r	clav_elev_r	scapula_abduction_r	scapula_elevation_r	scapula_upward_rot_r	scapula_winging_r	shoulder_elv_r	plane_of_elev_r	axial_rot_r	elbow_flexion_r	pro_sup_r	wrist_flex_r	wrist_dev_r	clav_prot_l	clav_elev_l	scapula_abduction_l	scapula_elevation_l	scapula_upward_rot_l	scapula_winging_l	shoulder_elv_l	plane_of_elev_l	axial_rot_l	elbow_flexion_l	pro_sup_l	wrist_flex_l	wrist_dev_l
      0.83000000	     13.77279891	     46.27436521	     12.29247436	     -0.00740306	      1.02475701	     -0.04938714	    -35.50283867	     28.15488908	    -42.10406840	     17.39890636	     45.00000000	    -21.01649575	     12.31547334	    -30.30165041	     54.50511554	    106.94111415	     35.34717901	     20.02517411	    -15.98381631	     26.27504663	    -37.84066116	    -45.00000000	      8.53159213	    -45.00000000	      3.68649733	     79.26466502	     11.10004668	    -16.42284670	    104.03383516	     42.21469053	     14.93728719	    -22.02628144
      0.84000000	     13.58973928	     46.30599096	     12.51640625	     -0.00781120	      1.02495788	     -0.04944033	    -35.42171890	     28.23223357	    -42.07546918	     17.47017894	     45.00000000	    -20.94424551	     12.39157082	    -30.15059194	     54.56543741	    107.63505946	     35.45676505	     20.14142185	    -16.08010051	     26.26756399	    -37.81123070	    -45.00000000	      8.50559922	    -45.00000000	      3.71278161	     79.47428358	     11.21012919	    -16.02783675	    104.49087435	     42.12350121	     14.80527056	    -22.06768607
      0.85000000	     13.41494466	     46.37042202	     12.68139928	     -0.00813149	      1.02510698	     -0.04952922	    -35.35153044	     28.32005079	    -42.07308069	     17.54823534	     45.00000000	    -20.88285328	     12.44089679	    -29.99549159	     54.56563886	    108.38622759	     35.57742074	     20.24216249	    -16.21862905	     26.26273098	    -37.79205519	    -45.00000000	      8.48863029	    -45.00000000	      3.72982966	     79.78954024	     11.36870724	    -15.65038139	    104.97768760	     42.03350758	     14.67048023	    -22.11769983
      0.86000000	     13.67207518	     46.54624570	     12.28911330	     -0.00842588	      1.02548040	     -0.04927330	    -35.15080396	     28.46994122	    -41.95722547	     17.69367840	     45.00000000	    -20.70602721	     12.39452131	    -29.89049798	     53.85223944	    109.47472127	     38.57686896	     19.08557727	    -16.93004886	     26.42911883	    -38.44912833	    -45.00000000	      9.07047355	    -45.00000000	      3.13889918	     81.01898616	     10.65653582	    -14.88878814	    105.72151841	     41.88889596	     14.73194937	    -22.13721707
      0.87000000	     13.43823979	     46.63032478	     12.51509999	     -0.00884422	      1.02567845	     -0.04939768	    -35.06994592	     28.56450778	    -41.94868823	     17.77838406	     45.00000000	    -20.63394161	     12.45664900	    -29.70067421	     53.87541672	    110.22036780	     38.61338577	     19.22097007	    -17.03925593	     26.41975791	    -38.41270741	    -45.00000000	      9.03783755	    -45.00000000	      3.17317897	     81.30365842	     10.89556870	    -14.47221395	    106.14481690	     41.81351547	     14.57610843	    -22.16838669
      0.88000000	     13.32731155	     46.73547340	     12.33906312	     -0.00901208	      1.02558627	     -0.04961008	    -35.00690097	     28.67200656	    -41.98207246	     17.87014059	     45.00000000	    -20.57131336	     12.32012325	    -29.41181388	     53.57075171	    111.05853830	     38.83315839	     19.17843928	    -17.34977454	     26.41042898	    -38.37602134	    -45.00000000	      9.00540072	    -45.00000000	      3.20665501	     82.07306832	     11.37119958	    -13.98276788	    106.55822721	     41.77259461	     14.38150547	    -22.19236892
      0.89000000	     13.07604454	     46.79832195	     12.60894514	     -0.00945213	      1.02590672	     -0.04978200	    -34.90611351	     28.76837631	    -41.94799591	     17.95967951	     45.00000000	    -20.48362117	     12.41132156	    -29.17690941	     53.59890993	    111.81106591	     38.90420073	     19.30392661	    -17.49386737	     26.40734199	    -38.36447424	    -45.00000000	      8.99481223	    -45.00000000	      3.21728432	     82.34766427	     11.57891316	    -13.51257821	    106.98865169	     41.69777947	     14.20965006	    -22.22506570
      0.90000000	     12.82682251	     46.86919791	     12.83529262	     -0.00974716	      1.02615144	     -0.04999660	    -34.80410706	     28.89146724	    -41.94409651	     18.07011346	     45.00000000	    -20.38954492	     12.45854081	    -28.93003616	     53.55952137	    112.60467724	     38.99427209	     19.39841215	    -17.69913449	     26.40361789	    -38.34873421	    -45.00000000	      8.98134227	    -45.00000000	      3.23286800	     82.74313988	     11.82732685	    -13.03516303	    107.45171078	     41.62310141	     14.02403465	    -22.26979515
      0.91000000	     12.71669215	     46.93704904	     12.65290898	     -0.01011836	      1.02606826	     -0.05013584	    -34.60802838	     29.14702056	    -41.96222588	     18.29657563	     45.00000000	    -20.20513973	     12.13595846	    -28.44417559	     53.02825644	    113.34705008	     39.48781826	     19.12339740	    -18.36954865	     26.41558543	    -38.39665719	    -45.00000000	      9.02368160	    -45.00000000	      3.18765754	     83.68659480	     12.21544681	    -12.38372877	    107.79982897	     41.61188498	     13.74929350	    -22.29826038
      0.92000000	     12.42843461	     46.98731121	     13.02645645	     -0.01061279	      1.02650191	     -0.05054409	    -34.47012883	     29.27427552	    -41.91079947	     18.41669848	     45.00000000	    -20.08594727	     12.28416179	    -28.16446698	     53.05355271	    114.10509580	     39.59718692	     19.23781794	    -18.53431394	     26.41754984	    -38.40784770	    -45.00000000	      9.03388456	    -45.00000000	      3.17693331	     83.92883375	     12.40655781	    -11.87407561	    108.20580259	     41.53766914	     13.56516953	    -22.31832414
      0.93000000	     12.53916862	     46.78466825	     13.06038850	     -0.01132528	      1.02630150	     -0.05024061	    -33.77117512	     30.03936571	    -41.82991494	     19.11900744	     45.00000000	    -19.44220558	     11.82727779	    -27.22727124	     52.08657510	    114.72517868	     41.19734920	     18.47038149	    -19.69200701	     26.44753525	    -38.52266167	    -45.00000000	      9.13572893	    -45.00000000	      3.07345250	     84.44205797	     12.47715302	    -11.06909088	    108.62899813	     41.49567590	     13.09282033	    -22.28602695
      0.94000000	     12.15064470	     46.92519289	     13.51199387	     -0.01175037	      1.02676594	     -0.05056267	    -33.65943975	     30.18297380	    -41.84526319	     19.24834281	     45.00000000	    -19.33625912	     11.94780471	    -27.00921273	     52.06610148	    115.50271419	     41.28673147	     18.58190772	    -19.80807133	     26.45146705	    -38.53999464	    -45.00000000	      9.15147176	    -45.00000000	      3.05609673	     84.78038776	     12.71403401	    -10.61288525	    108.97401998	     41.42792584	     12.93517268	    -22.29745999
      0.95000000	     12.00386846	     46.76538433	     13.67590532	     -0.01248260	      1.02659154	     -0.05051208	    -33.11035539	     30.73013811	    -41.73703089	     19.76492847	     45.00000000	    -18.83616213	     11.55111326	    -26.25322043	     51.18655557	    116.14325428	     42.38255766	     18.07475378	    -20.38321240	     26.44548679	    -38.51419494	    -45.00000000	      9.12822087	    -45.00000000	      3.08077018	     85.40587763	     13.01150851	     -9.88013431	    109.31062798	     41.24357352	     12.60172835	    -22.17213824
      0.96000000	     11.62494773	     46.87035126	     14.16409394	     -0.01314486	      1.02720707	     -0.05089873	    -33.02399227	     30.80802621	    -41.71018953	     19.84045317	     45.00000000	    -18.76016294	     11.75386884	    -25.97239438	     51.12516611	    116.88680735	     42.42396939	     18.18846113	    -20.52352204	     26.45510681	    -38.55412661	    -45.00000000	      9.16359335	    -45.00000000	      3.04596095	     85.68218701	     13.22517938	     -9.39508912	    109.55207260	     41.18439249	     12.45693467	    -22.15734930
